<svg width="260" height="260" viewBox="0 0 260 260" fill="none" xmlns="http://www.w3.org/2000/svg">
<path d="M255 130C255 199.036 199.036 255 130 255C60.9644 255 5 199.036 5 130C5 60.9644 60.9644 5 130 5C199.036 5 255 60.9644 255 130Z" stroke="black" stroke-width="10"/>
<path d="M148.555 79.3054C157.664 79.3054 165.886 80.0807 173.22 81.6312C180.555 83.1221 186.795 85.3883 191.941 88.4298C197.087 91.4713 201.05 95.2582 203.83 99.7906C206.61 104.263 208 109.482 208 115.445V172C208 177.523 203.523 182 198 182H194.754C189.231 182 184.754 177.523 184.754 172V125.164C184.754 120.214 183.69 116.189 181.56 113.088C179.431 109.927 176.621 107.452 173.132 105.663C169.642 103.874 165.679 102.651 161.242 101.995C158.419 101.578 155.56 101.293 152.666 101.141C149.908 100.997 147.668 103.25 147.668 106.011V172C147.668 177.523 143.191 182 137.668 182H136.197C130.674 182 126.197 177.523 126.197 172V106.011C126.197 103.25 123.955 100.988 121.201 101.202C119.123 101.364 117.092 101.628 115.106 101.995C111.616 102.592 108.304 103.426 105.169 104.5C102.034 105.573 99.0766 106.796 96.2966 108.168C95.2859 108.666 94.3026 109.173 93.3466 109.687C90.322 111.315 88.5776 114.545 88.5776 117.98V172C88.5776 177.523 84.1005 182 78.5776 182H75.332C69.8091 182 65.332 177.523 65.332 172V108.11C65.0954 106.202 64.5334 104.591 63.6462 103.279C62.8181 101.967 61.9013 100.894 60.8958 100.059V100.059C56.8793 96.4357 54.2608 91.5442 56.9279 86.8383L57.8024 85.2954C60.194 81.0755 65.2603 79.2175 69.6946 81.1833C71.3469 81.9159 72.8089 82.607 73.5833 83.0625C75.4169 84.136 77.3393 85.5374 79.3503 87.2669C81.3614 88.9964 83.1359 91.1135 84.6738 93.6182C89.4649 90.696 94.0785 88.3105 98.5147 86.4618C102.951 84.5534 107.624 83.0923 112.533 82.0785C117.442 81.005 122.795 80.2894 128.592 79.9316C134.389 79.5141 141.043 79.3054 148.555 79.3054Z" fill="black"/>
</svg>
