<svg width="1055" height="1174" viewBox="0 0 1055 1174" fill="none" xmlns="http://www.w3.org/2000/svg">
<path fill-rule="evenodd" clip-rule="evenodd" d="M25.8144 646.334C40.8543 647.81 55.8942 649.285 70.9291 650.761C142.958 656.269 214.952 667.765 286.428 674.664C288.208 671.768 291.687 672.241 293.806 674.255C300.934 673.632 308.931 668.179 315.391 673.852C315.601 673.822 315.81 673.787 316.019 673.767C327.525 651.683 335.476 628.124 343.193 604.535C348.118 590.033 354.743 575.995 366.991 566.254C387.889 551.743 435.775 522.311 460.317 523.547C460.725 519.155 462.769 514.624 466.134 511.698C458.721 499.056 488.363 490.805 490.451 492.271C489.11 450.033 508.971 413.353 552.764 404.943C591.992 396.767 647.795 395.392 668.891 436.409C671.214 436.144 694.923 436.025 697.216 436.279C700.781 431.763 739.949 474.579 723.896 489.489C867.415 552.999 949.021 545.422 988.745 723.976C994.115 740.746 994.506 759.101 1000.18 775.502C1020.35 822.631 1036.72 872.815 1040.79 924.091C1050.62 926.614 1051.76 943.967 1040.36 946.474C1036.01 947.431 1032.37 948.743 1029.2 951.23C1031.68 993.254 1021.52 1089.25 1015.12 1088.95C1002.06 1130.51 943.843 1142.24 902.625 1127.64C909.73 1141.01 902.625 1149.42 902.625 1156.56C754.308 1162.18 592.141 1158.94 443.866 1166.64C424.898 1166.37 404.948 1171.3 386.239 1168.46C374.833 1165.73 374.813 1147.78 386.383 1145.56L335.82 1134.58C336.952 1134.15 314.977 1119.53 298.367 1092.21C282.909 1061.64 293.432 1024.74 286.428 991.499C231.717 987.023 176.109 985.108 122.001 975.841C114.623 997.925 82.6839 971.514 72.5343 960.891C72.5492 960.876 72.5592 960.861 72.5742 960.841C67.6589 959.495 63.7207 954.889 63.5861 949.435C60.1415 944.515 59.4186 937.571 62.7237 932.815C47.5791 845.397 24.4933 756.145 16.1483 667.909C13.2022 667.256 10.4205 665.965 8.06754 663.971L8.25702 663.777C4.26898 659.33 3.4913 651.648 10.1463 647.865C15.5103 644.814 19.9919 645.761 25.8144 646.334Z" fill="white"/>
<path fill-rule="evenodd" clip-rule="evenodd" d="M666.151 426.891C661.679 415.654 646.575 420.021 648.26 431.826C649.267 438.895 653.14 446.362 656.615 452.559C659.446 457.604 662.676 462.524 667.053 466.303C659.257 473.581 651.171 480.585 642.876 487.24C633.823 494.503 624.307 501.193 614.466 507.345C605.842 512.738 596.824 517.519 588.693 523.676C581.131 529.393 574.247 536.278 570.742 545.261C567.008 554.827 568.628 564.708 571.38 574.269L571.694 575.351C574.501 584.822 579.366 596.238 572.621 605.161C569.192 609.708 564.202 612.923 559.895 616.557C556.061 619.782 552.467 623.297 549.172 627.066C541.983 635.286 536.136 644.533 532.447 654.842L532.118 655.78C528.957 664.902 526.644 676.079 530.917 685.037C532.143 687.604 536.096 686.767 536.784 684.269C538.339 678.606 538.255 672.674 539.556 666.926C540.912 660.954 543.165 655.286 546.111 649.917C551.804 639.538 559.521 630.675 568.633 623.182L571.36 620.959C578.469 615.126 584.999 608.935 586.445 599.274C587.985 588.94 583.848 579.094 581.186 569.314C579.331 562.494 578.728 555.959 580.732 549.802C583.18 553.8 586.52 557.594 589.162 560.979C594.426 567.724 599.735 574.428 605.034 581.143C610.468 588.028 615.767 595.022 620.812 602.2C623.07 605.411 625.304 608.641 627.527 611.871C629.202 614.299 631.535 616.727 633.359 619.204C632.916 620.53 632.951 622.061 633.753 623.142C643.424 636.218 657.188 608.94 660.777 602.046C668.085 588.008 673.529 573.097 680.862 559.059C688.459 544.513 697.113 530.356 706.754 517.07C712.587 509.039 719.127 501.492 724.461 493.202C737.036 504.608 753.579 512.255 768.774 519.184C785.469 526.801 802.814 533.023 819.932 539.628L824.988 541.597C854.482 553.107 884.697 565.759 909.212 586.213C938.02 610.251 955.063 643.751 967.75 678.442C982.356 718.377 994.439 759.389 1005.7 800.381C1011.47 821.348 1016.94 842.415 1022.08 863.552C1026.61 882.171 1030.36 900.974 1035.61 919.404C1024.97 919.025 1012.84 923.143 1003.76 924.334C962.369 929.753 921.538 938.392 882.462 953.352C877.635 955.202 876.239 960.022 877.29 963.931C874.506 963.143 871.725 962.35 868.941 961.568C871.99 956.892 870.535 948.537 870.295 943.352L870.281 942.998C870.034 936.094 869.286 929.18 868.8 922.29C867.875 909.155 866.672 896.114 865.071 883.048L864.663 879.783C862.849 865.57 861.509 851.278 859.53 837.091L859.296 835.471C860.245 831.837 861.35 828.252 862.509 824.683C865.599 815.177 869.96 806.223 873.783 797.016C874.233 795.929 872.689 795.311 871.968 795.959C865.495 801.782 860.353 809.175 856.223 816.901C856.151 816.538 856.088 816.174 856.013 815.81L855.542 813.487C854.38 807.829 852.966 801.871 849.495 797.28C849.125 796.797 848.395 796.692 848.045 797.28C844.723 802.903 844.351 810.027 843.84 816.423C843.263 823.661 843.19 830.994 843.292 838.252C843.491 852.435 844.49 866.662 845.286 880.82C846.068 894.738 847.602 908.477 849.579 922.256L849.954 924.843C850.921 931.398 851.712 938.038 852.986 944.554L853.346 946.328C854.028 949.559 854.447 954.11 855.803 957.894C820.903 948.158 785.949 938.641 750.929 929.294C725.618 922.535 700.279 915.88 674.955 909.18C673.619 906.767 671.954 904.519 669.875 902.51C663.035 895.88 653.968 892.918 645.648 898.023C644.975 898.442 644.915 899.499 645.648 899.903C647.243 900.77 648.838 901.667 650.408 902.599L635.199 898.477C623.833 895.396 612.327 891.543 600.697 889.394C579.267 878.816 556.216 871.159 533.643 863.591L530.986 862.689C519.426 858.751 507.472 854.334 495.528 852.151C486.784 850.551 476.525 852.48 473.01 861.443C468.559 864.374 464.371 867.824 460.328 871.214C457.407 873.666 454.605 876.273 451.759 878.806L451.235 879.269C448.907 881.288 447.063 882.644 446.49 885.86C446.196 887.52 447.252 889.768 449.301 889.549C455.567 888.876 460.662 881.607 464.914 877.27C468.2 873.915 471.51 870.446 474.506 866.757C476.25 867.709 478.648 867.54 479.76 865.431C485.528 854.509 501.325 862.076 510.069 864.668L522.586 868.377C528.848 870.232 535.109 872.101 541.355 873.995C558.529 879.215 575.612 885.052 592.941 889.843C591.39 891.548 591.605 894.578 594.551 895.735C608.11 901.059 622.99 903.811 637.083 907.465C645.977 909.773 654.87 912.091 663.758 914.429C665.279 916.897 666.375 919.693 666.839 922.943C668.534 934.903 665.264 948.701 662.078 960.267L661.595 961.996C658.978 971.294 655.124 982.694 647.103 988.567C645.144 989.997 642.652 990.994 640.139 991.219C624.441 983.133 608.743 975.052 593.035 966.981C590.124 965.486 587.432 967.51 586.779 969.918C581.241 969.01 575.717 967.575 570.682 965.87C562.228 962.993 555.622 957.515 547.696 953.726C532.352 946.393 516.689 955.401 502.955 962.246L499.785 963.801C493.628 966.792 480.812 972.535 477.861 964.359C474.999 956.448 484.037 947.993 489.875 944.434C496.834 940.187 504.934 937.919 512.796 936.024C517.287 934.942 521.829 934.06 526.4 933.417C531.589 932.689 536.943 932.799 541.938 931.114C544.416 930.281 544.8 926.338 541.938 925.685C534.252 923.935 525.079 925.845 517.058 927.794L512.866 928.831C504.785 930.815 496.624 933.302 489.261 937.261C483.912 940.137 478.259 944.509 474.57 949.863C471.365 946.887 467.377 946.986 463.224 948.088L460.966 948.716C457.242 949.748 454.226 950.461 450.602 949.743C450.119 947.106 449.625 944.469 449.102 941.832C443.937 915.9 438.274 890.067 432.028 864.369C421.25 820.047 408.778 776.208 394.715 732.824L393.304 728.486C390.064 718.561 387.452 707.749 382.222 698.636C377.277 690.012 369.356 685.047 359.944 682.42C349.266 679.434 338.04 677.873 327.142 675.859C324.715 675.411 322.277 674.982 319.844 674.538C321.898 670.829 323.434 666.612 324.814 663.377L325.059 662.818C328.03 656.044 330.697 649.149 333.274 642.215L335.198 637.006C339.849 624.453 344.65 612.11 351.19 600.376C358.075 588.023 367.207 577.923 378.593 569.568C401.799 552.524 429.775 543.83 452.287 525.615C453.209 524.872 452.028 523.596 451.091 524.064C435.891 531.707 419.481 536.901 403.673 543.122L400.552 544.354C388.055 549.309 375.363 554.703 364.55 562.728C352.491 571.677 342.99 582.788 335.851 595.999C328.817 609.025 324.316 623.601 319.356 637.514L318.025 641.223C316.026 646.781 313.957 652.32 311.589 657.729C309.705 662.026 306.195 666.926 304.6 671.831C300.233 671.074 295.871 670.316 291.499 669.588C196.853 653.776 101.15 644.488 5.2326 641.772C1.48383 641.667 -0.460366 645.246 0.0929753 648.521C9.30037 702.973 17.4808 757.609 26.4539 812.101C30.3722 835.885 34.3702 859.648 38.4579 883.402C40.5317 895.436 42.9245 907.425 44.8886 919.479C46.4689 929.21 47.6205 939.02 50.3373 948.527C52.78 957.051 56.5238 965.272 62.6703 971.777C69.2955 978.786 78.5427 982.181 87.8548 983.781C111.489 987.854 135.731 989.514 159.56 992.226L286.41 1006.66C284.555 1023.52 284.415 1040.11 285.268 1057.16L285.751 1066.47C286.15 1073.96 286.624 1081.46 287.696 1088.87C289.047 1098.16 293.299 1106.03 299.56 1112.98C305.308 1119.35 312.292 1124.8 319.087 1130.01C326.14 1135.42 333.424 1140.65 341.719 1144L342.79 1144.42C350.069 1147.27 363.713 1151.66 373.653 1150.06C372.357 1156.57 369.839 1163.57 372.073 1170.02C373.105 1173.01 377.018 1174.5 379.416 1171.96C384.161 1166.91 384.535 1160.25 385.657 1153.66C386.828 1146.81 387.835 1139.93 388.733 1133.04C390.468 1119.71 391.819 1106.26 392.227 1092.81C392.651 1079.01 392.487 1065.19 391.744 1051.4C391.365 1044.31 390.886 1037.24 389.989 1030.2C389.605 1027.21 389.216 1024.2 388.768 1021.21C388.603 1020.12 388.424 1019.03 388.229 1017.94L399.615 1019.23C417.073 1021.18 434.54 1022.94 452.123 1023.21C454.202 1023.25 455.807 1022.3 456.854 1020.91C457.965 1022.73 459.909 1024.04 462.691 1024.03C487.242 1023.93 510.109 1015.9 532.437 1006.43C543.698 1001.66 554.775 996.493 566.051 991.762C576.575 987.345 587.821 984.195 598.09 979.22L625.074 993.377C625.269 994.075 625.523 994.733 625.792 995.287C627.552 998.871 631.016 1000.82 634.551 1002.29C637.946 1003.69 641.465 1004.13 644.89 1003.78C665.353 1014.5 685.822 1025.22 706.306 1035.91L726.789 1046.6C767.608 1067.86 808.264 1089.46 849.338 1110.23L852.362 1111.75C866.549 1118.87 881.783 1126.08 897.527 1131.46C897.808 1135.45 897.631 1139.33 897.297 1143.55L897.216 1144.46C896.747 1149.45 895.741 1155.7 899.739 1159.25C901.819 1161.1 905.535 1161.1 906.949 1158.32C909.516 1153.27 907.211 1145.32 906.398 1139.83C906.11 1137.88 905.758 1135.88 905.238 1133.93C923.287 1139.3 941.883 1141.91 960.251 1138.9C978.134 1135.96 991.984 1124.69 1003.15 1110.9C1014.93 1096.35 1023.31 1079.4 1027.8 1061.23C1032.91 1040.55 1033.25 1019.19 1033.13 998.008C1033 975.456 1032.17 952.784 1029.42 930.381C1032.43 929.673 1035.76 929.065 1038.8 929.274C1040.3 931.682 1043.22 932.694 1045.85 932.38C1051.59 938.706 1037.05 945.172 1032.4 946.787C1030.79 947.35 1030.96 949.972 1032.82 949.893L1033.99 949.838C1041.17 949.454 1048.59 948.228 1052.81 941.553C1056.19 936.204 1055.18 929.868 1051.15 925.501C1048.48 900.311 1042.11 875.775 1036.19 851.199C1030.37 827.081 1023.9 803.113 1017.05 779.264L1013.98 768.591C1003.18 731.203 991.901 693.511 977.013 657.604C969.579 639.678 961.014 622.081 949.405 606.447C938.584 591.876 925.808 579.403 911.122 568.755C883.745 548.9 851.62 536.901 820.056 525.47L818.643 524.962C802.286 519.044 785.969 513.052 769.799 506.637C755.498 500.969 741.797 493.775 727.562 488.022C728.026 487.18 728.474 486.333 728.903 485.47L729.167 485.694C729.212 485.729 729.257 485.764 729.302 485.799C730.737 486.791 732.843 486.303 734.022 485.186C737.353 482.045 736.225 478.556 734.002 475.296L733.712 474.877C730.992 471.068 728.569 467.04 726.056 463.092L724.486 460.62C720.274 454.024 715.847 447.384 710.229 441.931C707.627 439.403 704.78 437.514 701.764 436.103C702.024 435.56 699.76 434.443 699.117 435.006C689.556 431.502 678.559 432.24 668.135 433.202L666.151 426.891ZM292.546 1007.36L305.841 1008.87C320.462 1010.54 335.089 1012.15 349.72 1013.74L381.494 1017.2C381.579 1019.01 381.799 1020.78 381.838 1022.15C382.043 1029.2 382.197 1036.26 382.347 1043.32C382.641 1057.47 382.317 1071.63 381.385 1085.75C380.483 1099.43 379.296 1113.11 377.447 1126.7L377.073 1129.42L376.853 1130.85C375.343 1130.99 373.862 1131.71 372.631 1133.18C369.944 1136.39 360.213 1133.27 356.41 1131.92C350.158 1129.69 344.276 1125.93 338.842 1122.17C333.538 1118.49 328.763 1114.2 324.171 1109.67L320.418 1105.95C316.684 1102.24 312.945 1098.29 310.657 1093.62C307.551 1087.28 307.152 1079.5 306.24 1072.6C305.118 1064.12 303.787 1055.64 302.377 1047.19L292.546 1007.36ZM678.384 918.287L679.765 918.646C729.845 931.961 779.85 945.665 830.084 958.392C854.943 964.688 879.92 970.531 904.81 976.707L908.839 977.714C928.475 982.679 948.346 988.651 963.382 1002.9C963.937 1003.43 964.743 1002.62 964.221 1002.06C948.015 984.803 924.968 977.5 902.838 971.164C898.748 969.997 894.652 968.851 890.56 967.689C920.656 956.957 951.227 947.62 982.503 940.959C990.556 939.245 998.704 937.983 1006.75 936.264C1012.36 935.062 1017.84 933.322 1023.4 931.882L1027.77 930.785L1027.82 944.594C1027.9 964.155 1027.86 983.696 1026.86 1003.26L1026.68 1006.88C1025.51 1028.64 1023.69 1050.86 1015.97 1071.38C1009.7 1088.06 999.701 1103.77 986.623 1115.91C980.006 1122.06 972.891 1126.84 964.098 1129.21C955.932 1131.4 947.377 1131.66 938.984 1131.07C898.721 1128.26 862.882 1106.38 827.908 1088.27C770.702 1058.64 713.489 1029.02 656.226 999.504C657.776 998.447 659.232 997.226 660.558 995.855C668.235 987.919 672.288 977.061 674.95 966.543C677.781 955.346 679.471 943.347 679.671 931.787L678.384 918.287ZM605.523 1010.94C605.019 1010.67 604.431 1011.01 604.411 1011.58C604.232 1015.95 606.649 1020.27 608.454 1024.21L608.643 1024.63C610.842 1029.51 613.24 1034.33 615.727 1039.08C620.692 1048.55 625.852 1057.92 631.241 1067.16C642.068 1085.75 654.107 1103.55 668.33 1119.73C671.545 1123.39 676.829 1118.7 674.765 1114.76C664.825 1095.79 653.235 1077.87 641.306 1060.11C635.333 1051.22 629.366 1042.32 623.334 1033.47C620.817 1029.77 618.27 1026.09 615.652 1022.47L614.072 1020.3L605.523 1010.94ZM11.5785 652.639C61.8329 654.159 112.027 657.435 162.042 662.574C208.558 667.355 254.904 673.716 300.986 681.642C310.612 683.297 320.223 685.022 329.824 686.816L335.587 687.898C345.188 689.718 356.918 690.47 365.468 695.6C374.481 701.014 376.918 712.32 379.919 721.642C383.444 732.609 386.883 743.606 390.223 754.628C403.503 798.402 415.632 842.55 426.455 886.991C431.824 909.05 436.589 931.229 441.609 953.367C446.071 973.038 450.996 992.49 456.136 1011.96C455.503 1011.47 454.725 1011.09 453.788 1010.89C428.249 1005.46 402.182 1003.1 376.265 1000.09L373.758 999.798C346.943 996.647 320.128 993.517 293.304 990.496L115.671 970.516C105.198 969.334 93.9765 969.175 83.782 966.363C66.449 961.583 62.3862 942.196 59.475 926.757L59.3902 926.288C50.6215 879.643 43.6424 832.594 35.4619 785.83L11.5785 652.639ZM452.003 957.739C458.902 957.281 468.339 950.964 473.573 951.418C470.827 956.029 469.585 961.288 471.171 966.902C475.572 982.53 495.498 974.444 505.094 969.668C512.96 965.755 520.558 960.959 529.271 959.125C539.137 957.051 545.822 960.979 554.162 965.501C561.006 969.22 568.464 971.887 576.136 973.268C580.214 974.005 584.087 974.08 587.956 973.796C588.185 973.985 588.449 974.16 588.748 974.319L590.792 975.391C581.545 975.815 572.123 978.671 563.519 981.284C554.6 983.99 545.847 987.256 537.138 990.596L528.569 993.886C507.437 1001.98 485.562 1009.67 462.691 1009.6C461.046 1009.6 459.7 1010.05 458.638 1010.8L452.003 957.739ZM490.587 908.771C483.778 907.938 477.487 908.831 472.043 913.267C465.478 918.621 461.066 927.495 451.629 928.078C448.878 928.248 448.234 932.116 450.971 932.924C458 935.007 463.688 931.204 468.474 926.268L471.689 922.904C476.42 918.003 480.782 914.215 488.813 914.509C497.407 914.823 506.016 916.807 514.556 917.819C524.232 918.965 533.903 919.937 543.608 920.78C544.062 920.82 544.137 920.112 543.713 920.007L532.846 917.3L490.587 908.771ZM497.163 880.909L496.041 880.8C486.146 879.838 477.098 879.798 468.264 885.122L466.569 886.149C458.603 890.994 449.929 896.697 444.949 904.539C444.137 905.825 445.483 907.335 446.844 907.006C456.42 904.708 463.419 897.684 471.47 892.425C480.508 886.523 489.84 887.495 500.144 888.412C510.119 889.299 520.089 890.521 529.969 892.181C539.252 893.746 548.564 896.209 557.936 896.996V896.976C559.007 896.976 559.615 895.366 558.524 894.818C549.012 890.067 537.99 887.819 527.641 885.645L497.163 880.909ZM196.624 783.088C197.581 778.511 191.953 776.393 189.346 780.022L188.792 780.785C183.159 788.507 175.009 798.198 175.427 808.018C170.472 808.123 165.338 811.134 163.408 815.605C162.516 817.674 162.217 820.122 162.411 822.659C157.91 823.013 153 825.969 150.248 828.846C145.686 833.616 145.328 840.361 148.603 845.934C155.736 858.088 171.32 862.51 184.48 863.497L184.949 863.532C198.538 864.474 218.119 864.22 227.441 852.554C236.429 841.303 226.494 832.196 216.305 827.245C218.957 824.823 220.333 821.353 219.042 817.689C216.773 811.248 208.767 808.761 204.246 804.284C198.727 798.831 195.088 791.343 196.539 783.516L196.624 783.088ZM189.156 792.983C190.652 799.499 194.336 805.456 199.46 810.182C201.424 811.986 203.568 813.591 205.846 814.977L206.12 815.132C208.144 816.268 213.114 818.397 212.735 820.949C212.342 823.566 204.241 827.664 202.033 827.669C201.529 827.669 201.245 828.452 201.758 828.681C205.761 830.446 209.256 831.204 213.164 829.339C215.781 832.006 218.319 834.768 220.836 837.51C225.283 842.355 223.762 847.47 218.503 851.079C210.058 856.877 197.227 856.732 187.371 856.313C177.456 855.89 166.853 853.676 159.111 847.066L158.772 846.772C154.56 843.028 150.716 836.682 157.162 833.073C159.689 831.662 162.416 831.742 164.814 831.059C167.057 835.456 170.696 838.98 175.133 839.658C178.722 840.207 181.195 835.695 177.93 833.537L177.197 833.083C173.099 830.466 169.6 826.433 169.694 821.184C169.754 817.539 174.844 812.938 178.159 816.363L178.309 816.523C181.08 819.653 185.966 815.71 184.141 812.245L184.056 812.091L189.156 792.983ZM835.933 611.786C835.945 611.004 834.845 610.71 834.46 611.388C828.024 622.719 824.659 636.607 821.23 649.09C817.638 662.16 814.739 675.371 812.134 688.676C806.859 715.615 804.048 742.405 803.857 769.862C803.831 773.781 810.215 774.828 810.84 770.81C814.986 744.1 818.959 717.36 823.137 690.66C825.239 677.23 827.686 663.85 830.027 650.46L835.933 611.786ZM772.206 631.522C772.68 629.957 770.407 629.433 769.826 630.864C756.907 662.589 752.533 698.536 760.827 732.006C762.095 737.126 769.591 734.907 768.634 729.852L772.206 631.522ZM605.573 603.332C605.642 602.165 604.122 601.981 603.549 602.783C597.432 611.413 594.89 622.968 584.152 627.425C578.788 629.653 572.756 629.264 568.02 633.023C564.85 635.54 562.422 639.508 564.8 643.317C565.568 644.548 567.711 645.166 568.753 643.83C570.274 641.881 571.076 639.548 573.14 638.088C576.051 636.029 579.974 635.899 583.309 634.932C587.626 633.681 591.43 631.487 594.546 628.237L605.573 603.332ZM503.314 459.428C502.681 459.109 502.078 459.314 501.674 459.857C501.096 460.635 501.166 461.392 501.874 461.926C500.931 463.855 499.82 468.68 499.66 469.383C499.012 472.235 498.329 475.066 497.611 477.893C496.166 483.601 494.894 489.353 493.449 495.061C491.913 501.113 490.084 507.1 488.05 513.003C487.915 513.386 487.771 513.775 487.621 514.169L487.387 514.767L487.332 514.678C486.918 514.024 486.056 514.483 486.156 515.171C486.255 515.804 486.38 516.427 486.49 517.06L486.275 517.624C484.944 521.208 484.032 524.987 486.475 528.152C487.387 529.334 488.394 530.032 489.645 530.241C491.659 536.871 494.177 543.372 496.879 549.618L497.666 551.442C501.639 560.555 505.872 569.553 512.198 577.31C519.097 585.779 528.593 591.567 534.605 600.849C537.402 605.166 539.351 609.703 540.926 614.578L541.525 616.432C542.646 619.882 543.937 623.222 547.173 625.246C548.205 625.889 549.75 625.685 550.583 624.807C557.213 617.788 550.274 604.683 546.271 597.888C540.712 588.441 532.671 582.395 524.615 575.266C515.931 567.584 510.393 557.305 505.034 547.18C501.754 540.974 498.583 534.638 495.248 528.406C498.733 525.326 499.85 519.204 501.031 514.952L501.136 514.568C503.09 507.758 504.64 500.769 505.617 493.745C506.56 486.996 506.953 480.345 506.704 473.556L506.634 471.826L503.314 459.428ZM490.358 491.557C491.126 490.5 489.85 489.304 488.798 489.523C482.372 490.854 476.096 494.742 470.328 497.888L469.715 498.222C465.114 500.704 460.483 503.745 458.065 508.566C455.438 513.805 455.657 519.842 456.016 525.54L456.046 526.073C456.49 532.903 456.559 540.002 458.005 546.707C458.743 550.141 461.849 551.108 464.506 550.296C467.671 560.281 476.55 567.639 483.04 575.52C491.31 585.57 489.755 599.134 488.888 611.233C488.539 616.133 494.63 617.524 497.766 614.912L504.999 608.905C506.201 607.903 507.407 606.896 508.603 605.889C509.63 605.022 510.647 604.154 511.659 603.272L513.165 601.936C513.833 601.338 516.784 598.043 517.646 597.908C519.735 597.574 524.7 603.082 526.4 604.807L526.614 605.027C529.81 608.162 532.701 611.537 535.393 615.116C535.887 615.774 536.854 615.226 536.5 614.468C534.087 609.299 531.285 604.359 527.955 599.738L527.282 598.815C525.069 595.829 522.098 590.56 518.185 589.678C513.414 588.601 508.648 593.392 505.174 596.049L504.954 596.213C503.299 597.454 501.669 598.716 500.039 599.987C500.209 590.979 499.072 581.876 494.421 574.109C491.141 568.636 486.23 564.578 482.028 559.872C477.347 554.633 474.904 548.197 470.667 542.738C470.124 542.036 469.371 541.657 468.558 541.537C468.394 537.15 467.746 532.723 467.247 528.381L467.103 527.085C466.599 522.369 465.408 516.612 467.716 512.195C469.894 508.022 474.894 505.081 478.598 502.25L481.624 499.902L490.358 491.557ZM698.798 441.701C700.727 442.818 702.537 444.214 704.177 445.949C709.337 451.427 713.031 458.247 716.62 464.802C718.554 468.337 720.418 471.906 722.368 475.43C723.215 476.961 724.087 478.476 724.97 479.992C725.378 480.689 726.59 482.075 727.188 482.928C726.52 483.865 725.832 484.787 725.129 485.694C724.86 486.043 706.346 506.223 699.89 514.119C690.005 526.213 681.171 538.99 673.619 552.669C666.226 566.058 660.593 580.241 653.743 593.89C650.314 600.725 646.485 607.509 641.605 613.426C641.415 613.656 641.216 613.875 641.021 614.104C639.162 609.07 634.386 603.676 632.043 600.58L631.824 600.291C626.505 593.117 620.887 586.163 615.154 579.329C609.91 573.082 604.536 566.976 599.032 560.969L596.964 558.721C593.13 554.578 588.26 548.376 582.646 545.415C583.245 544.344 583.943 543.282 584.74 542.235C589.999 535.361 597.437 530.371 604.775 525.869L609.531 522.973C627.462 512.04 645.119 500.6 660.687 486.392C668.923 478.88 677.048 471.003 683.973 462.24L686.42 459.139L698.798 441.701ZM668.873 436.288C677.273 436.995 686.341 436.826 694.102 439.563C687.203 446.088 680.643 453.132 673.908 459.767C673.31 455.281 672.083 450.849 671.041 446.472" fill="black"/>
<path fill-rule="evenodd" clip-rule="evenodd" d="M582.998 21.3443C523.197 21.3443 461.343 67.7153 439.423 97.3056C420.993 122.184 411.068 234.682 411.068 310.71C411.068 326.608 402.299 356.583 404.857 371.792C414.239 427.525 455.101 474.27 535.984 474.27C616.866 474.27 674.862 442.196 734.978 356.084C764.148 356.084 778.285 333.706 778.49 298.392C778.695 263.078 750.334 250.228 750.334 250.228C750.334 250.228 760.446 110.859 734.978 74.5742C709.508 38.289 642.793 21.3443 582.998 21.3443Z" fill="white"/>
<path fill-rule="evenodd" clip-rule="evenodd" d="M608.16 1.63984C570.404 -2.18469 533.405 1.02868 496.196 7.67774C493.355 8.1932 491.739 10.0591 491.141 12.3019C473.614 13.103 456.071 14.3891 438.569 15.3482C432.218 15.6957 428.614 21.9739 431.51 27.6434C432.088 28.7695 432.692 29.8652 433.3 30.9614L432.532 30.7082C427.268 29.0183 421.58 28.1852 416.45 30.8672C409.92 34.281 407.362 41.8134 408.803 48.7456C409.172 50.5158 409.795 52.2122 410.498 53.8672C409.067 53.7725 407.622 53.8039 406.191 53.9939C398.569 55.0053 392.901 60.8528 392.502 68.639C391.909 80.3957 399.481 92.3234 408.404 100.741C407.108 103.407 406.615 106.547 407.153 109.729C408.225 116.019 412.856 119.785 418.225 122.242C415.987 129.355 414.93 136.792 415.553 144.391C415.762 146.928 417.981 149.023 420.319 149.538C411.595 173.574 407.178 199.381 404.003 224.527C401.734 242.418 400.618 260.413 400.483 278.439C400.418 286.58 400.553 294.725 400.892 302.866L401.031 305.917C401.45 314.715 401.475 323.952 403.055 332.656C397.662 341.834 395.493 353.225 394.576 363.509C393.439 376.236 395.239 389.361 399.252 401.47C414.396 447.213 460.104 476.081 506.012 483.584C548.509 490.528 597.682 481.181 622.512 442.567C622.906 441.959 622.074 441.45 621.59 441.854C603.818 456.306 583.21 462.756 560.817 465.897C522.103 471.311 478.589 462.123 447.517 437.766C432.607 426.071 421.854 409.042 417.123 390.722C414.71 381.355 413.878 371.59 414.83 361.949C415.797 352.173 420.124 343.828 422.851 334.586C423.768 331.465 422.801 328.569 420.892 326.505C420.359 319.002 419.092 311.44 418.609 303.957C418.07 295.453 417.746 286.953 417.627 278.439C417.407 260.782 418.145 243.091 419.631 225.508C422.348 193.309 429.561 161.892 433.793 129.967C435.364 131.374 437.612 131.951 439.965 130.722L440.209 130.589L441.495 129.852C441.57 129.852 441.65 129.863 441.724 129.872C450.518 130.727 459.641 129.505 468.065 126.88C476.884 124.142 485.064 119.928 492.373 114.312C493.763 121.359 494.342 128.482 494.352 135.667C494.362 140.156 499.112 142.485 502.886 140.567C519.596 132.074 535.563 122.288 550.718 111.288C552.487 120.359 554.257 129.43 556.037 138.512C556.725 142.011 561.176 143.423 564.033 141.758C575.384 135.151 585.189 126.502 593.175 116.218C594.766 119.267 596.366 122.316 597.976 125.357L600.399 129.915C602.787 134.392 605.992 139.345 611.226 140.777C616.765 142.294 621.391 138.702 623.25 133.686C623.818 132.128 624.347 130.526 624.83 128.914C629.551 139.693 634.88 150.229 640.902 160.28C649.94 175.356 660.788 188.789 671.605 202.57C674.89 206.754 680.513 202.76 680.967 198.694C681.231 196.303 681.451 193.9 681.64 191.508C687.941 204.231 694.521 216.835 701.685 229.073L700.658 233.095C697.702 244.977 695.249 256.943 692.577 268.888C691.715 272.746 693.764 278.254 698.265 278.912C703.644 279.695 708.729 282.442 714.237 280.553C720.244 278.489 721.431 273.294 724.267 268.374C724.836 267.392 725.494 266.49 726.201 265.637L726.381 265.872C726.82 266.45 727.876 265.817 727.612 265.154L727.303 264.386C729.741 261.799 732.654 259.645 735.335 257.322C741.704 256.25 748.869 257.427 753.257 260.014C763.252 265.911 767.843 278.07 767.938 289.252C768.054 302.337 764 317.043 757.154 328.235C754.141 333.155 750.013 337.597 744.558 339.78C739.144 341.949 733.278 341.276 727.772 343.319C724.128 344.68 721.884 348.728 724.083 352.392C724.232 352.646 724.397 352.876 724.556 353.12L722.921 355.294C721.795 356.799 720.618 358.414 719.522 360.094C716.72 363.319 713.774 366.425 710.917 369.596C705.643 375.443 700.523 381.45 695.334 387.382C690.434 392.976 685.254 398.235 679.915 403.404C674.87 408.305 668.569 412.427 663.938 417.652C659.432 422.751 658.205 431.655 665.623 434.606C673.824 437.876 681.087 430.209 686.61 425.094L686.845 424.88C696.964 415.558 706.107 404.91 713.365 393.185C720.558 398.08 730.957 398.549 738.12 393.653C741.888 391.076 744.779 386.749 746.184 382.038C747.509 382.337 748.833 382.507 750.124 382.487C750.789 382.876 751.455 383.25 752.13 383.599C757.47 386.38 764.031 385.139 766.474 379.227C768.699 373.858 766.406 367.766 764.402 362.592L763.988 361.525C762.851 358.579 761.597 355.363 760.039 352.337C764.378 349.072 768.086 345.014 771.224 340.403C781.766 324.86 787.032 302.133 784.705 283.593C783.304 272.402 778.05 260.812 769.445 253.269L769.76 252.447C772.172 246.327 774.363 240.184 775.784 233.716C777.448 226.151 778.26 218.312 778.996 210.61C780.555 194.343 780.134 177.706 778.059 161.503C774.162 131.001 764.283 101.058 746.748 75.6769C751.72 69.7227 755.658 62.7167 753.605 54.6574C752.667 50.9585 750.53 47.451 747.306 45.3323C745.527 44.1638 743.409 43.9849 741.629 43.0153L741.094 42.7207C740.312 42.264 740.91 42.3124 741.376 40.1917C743.219 31.7196 741.693 23.5342 732.372 20.7211C723.599 18.077 715.299 23.6922 710.11 30.3827C696.52 20.7416 678.619 15.6957 662.871 11.4076C644.97 6.54962 626.6 3.51621 608.16 1.63984ZM754.911 285.792C754.975 278.893 748.435 274.635 741.999 275.767C737.678 276.52 734.072 279.097 730.688 281.764L729.038 283.07C724.915 286.31 720.18 289.8 717.727 294.381C714.123 301.146 721.735 310.249 728.844 305.508C733.721 302.238 736.847 296.998 740.046 292.133L740.377 291.629C741.831 289.451 743.105 287.133 745.096 285.383L745.527 285.004C746.181 284.446 746.884 283.937 747.729 283.698C749.36 283.23 752.38 283.888 753.1 285.827L753.164 286.026C753.427 287.008 754.9 286.794 754.911 285.792Z" fill="black"/>
<path fill-rule="evenodd" clip-rule="evenodd" d="M482.06 381.3C489.208 384.111 497.653 384.775 505.031 382.377C512.084 380.089 518.49 374.989 522.364 368.578C525.818 362.87 527.259 356.091 525.22 349.336C525.12 349.012 524.806 348.807 524.497 348.723C522.832 350.243 521.8 351.754 520.768 353.259C519.029 355.791 517.289 358.299 514.901 360.462C511.421 363.613 506.736 366.175 502.089 367.018C497.538 367.845 492.877 367.112 488.799 364.934C486.322 363.608 484.318 361.838 482.334 360.059C480.17 358.119 478.042 356.155 475.065 355.059C472.683 354.181 470.175 354.924 468.251 356.39C466.182 357.965 464.697 360.432 464.776 363.015C464.906 367.013 466.656 370.348 469.193 373.095C472.623 376.818 477.473 379.495 482.06 381.3ZM490.544 281.684C482.588 286.519 470.474 297.795 479.029 309.784C489.098 320.353 503.6 308.234 510.743 302.75C517.369 298.503 524.811 309.43 518.665 314.391C467.035 352.631 446.082 282.945 486.521 275.996C490.973 275.228 492.628 280.183 490.544 281.684ZM574.193 214.674C563.356 214.156 553.799 219.025 543.47 221.238C533.924 223.284 524.522 222.055 515.235 219.453C500.17 215.229 493.944 238.303 508.804 242.8C519.627 246.074 531.023 246.302 542.129 244.614C551.99 243.114 560.26 238.309 569.667 235.512C577.738 233.113 587.234 234.11 595.759 235.239L599.069 235.685C603.989 236.348 608.934 237.013 613.804 237.974C618.027 238.81 622.244 240.339 626.556 240.516C627.05 240.536 627.464 239.9 627.154 239.476C622.144 232.595 612.488 227.166 604.806 223.545L604.288 223.301C594.806 218.879 584.752 215.178 574.193 214.674ZM578.166 265.412V265.173C578.151 258.453 574.243 243.115 564.572 243.115C558.535 243.115 554.866 253.553 554.233 264.316L554.208 264.754C553.929 271.444 555.764 286.07 564.572 286.07C573.475 286.07 578.077 272.217 578.166 265.412ZM435.823 265.412V265.173C435.838 258.453 439.746 243.115 449.417 243.115C455.305 243.115 458.939 253.039 459.707 263.508L459.756 264.316C460.14 270.781 458.42 286.07 449.417 286.07C440.514 286.07 435.913 272.217 435.823 265.412ZM435.973 206.491L435.28 206.506C423.979 206.898 412.358 213.594 409.343 224.841C409.188 225.425 409.906 225.818 410.335 225.417C419.622 216.716 432.114 225.03 441.421 229.388L444.836 230.968C456.83 236.549 470.469 243.111 483.784 238.952C490.11 236.976 494.128 230.476 492.324 223.909C490.719 218.067 483.67 213.158 477.563 215.266L477.284 215.367C472.324 217.265 466.227 215.342 461.102 213.446L456.895 211.865C450.125 209.296 443.331 206.422 435.973 206.491Z" fill="black"/>
</svg>
