<svg width="1440" height="596" viewBox="0 0 1440 596" fill="none" xmlns="http://www.w3.org/2000/svg">
<path fill-rule="evenodd" clip-rule="evenodd" d="M0 357.528L20 339.929C40 323.503 109 262.12 149 287.932C189 312.571 227 367 267 417C309 469.5 320 495 360 495C400 495 413.5 468.625 453.5 417C493.5 366.548 533.5 326.071 573.5 343.671C613.5 360.097 680 492.457 720 551.122C760 610.96 800 610.96 840 551.122C880 492.457 920 373.954 960 331.716C1000 289.477 1047.63 340.668 1080 389C1114 439.759 1137.67 483.5 1178.5 483.5C1223 483.5 1280 373.954 1320 348.142C1360 323.503 1400 339.929 1420 348.142L1440 357.528V205H1420C1400 205 1360 205 1320 205C1280 205 1240 205 1200 205C1160 205 1120 205 1080 205C1040 205 1000 205 960 205C920 205 880 205 840 205C800 205 760 205 720 205C680 205 640 205 600 205C560 205 520 205 480 205C440 205 400 205 360 205C320 205 280 205 240 205C200 205 160 205 120 205C80 205 40 205 20 205H0V357.528Z" fill="#F93822"/>
<rect width="1440" height="224" fill="#F93822"/>
</svg>
