<svg width="1440" height="484" viewBox="0 0 1440 484" fill="none" xmlns="http://www.w3.org/2000/svg">
<path fill-rule="evenodd" clip-rule="evenodd" d="M0 245.528L20 227.929C40 211.503 109 150.12 149 175.932C189 200.571 227 255 267 305C309 357.5 320 383 360 383C400 383 413.5 356.625 453.5 305C493.5 254.548 533.5 214.071 573.5 231.671C613.5 248.097 680 380.457 720 439.122C760 498.96 800 498.96 840 439.122C880 380.457 920 261.954 960 219.716C1000 177.477 1047.63 228.668 1080 277C1114 327.759 1137.67 371.5 1178.5 371.5C1223 371.5 1280 261.954 1320 236.142C1360 211.503 1400 227.929 1420 236.142L1440 245.528V93H1420C1400 93 1360 93 1320 93C1280 93 1240 93 1200 93C1160 93 1120 93 1080 93C1040 93 1000 93 960 93C920 93 880 93 840 93C800 93 760 93 720 93C680 93 640 93 600 93C560 93 520 93 480 93C440 93 400 93 360 93C320 93 280 93 240 93C200 93 160 93 120 93C80 93 40 93 20 93H0V245.528Z" fill="#FDDB27"/>
<rect width="1440" height="112" fill="#FDDB27"/>
</svg>
