<svg width="1440" height="718" viewBox="0 0 1440 718" fill="none" xmlns="http://www.w3.org/2000/svg">
<path fill-rule="evenodd" clip-rule="evenodd" d="M0 519.528L20 501.929C40 485.503 109 424.12 149 449.932C189 474.571 218.5 508 267 549C318.345 592.405 320 607 360 607C400 607 413.5 580.625 453.5 529C493.5 478.548 503.5 438.071 543.5 455.671C583.5 472.097 659 614.457 699 673.122C739 732.96 810 732.96 850 673.122C890 614.457 940 475.954 980 433.716C1020 391.477 1047.63 472.668 1080 521C1114 571.759 1137.67 615.5 1178.5 615.5C1223 615.5 1280 465.954 1320 440.142C1360 415.503 1377.5 440.142 1403.5 462.5L1440 509.528V317H1420C1400 317 1360 317 1320 317C1280 317 1240 317 1200 317C1160 317 1120 317 1080 317C1040 317 1000 317 960 317C920 317 880 317 840 317C800 317 760 317 720 317C680 317 640 317 600 317C560 317 520 317 480 317C440 317 400 317 360 317C320 317 280 317 240 317C200 317 160 317 120 317C80 317 40 317 20 317H0V519.528Z" fill="#1E90CD"/>
<rect width="1440" height="336" fill="#1E90CD"/>
</svg>
